<svg version="1.1" id="Layer_1" xmlns="http://www.w3.org/2000/svg" x="0" y="0" width="70" height="70" xml:space="preserve"><path fill="none" d="M0 70h70V0H0z"/><path fill="#3E50B4" d="M18.848 7.925h34.945a4.32 4.32 0 0 1 4.32 4.32v48.151a4.32 4.32 0 0 1-4.32 4.32H18.848a4.32 4.32 0 0 1-4.32-4.32V12.245a4.32 4.32 0 0 1 4.32-4.32z"/><path fill="#BAC4F8" d="M18.729 9.245h35.183a2.88 2.88 0 0 1 2.88 2.88v48.391a2.881 2.881 0 0 1-2.88 2.881H18.729a2.88 2.88 0 0 1-2.88-2.881V12.125a2.88 2.88 0 0 1 2.88-2.88z"/><path fill="#3E50B4" d="M16.088 6.604h36.504a2.881 2.881 0 0 1 2.881 2.88v49.711a2.88 2.88 0 0 1-2.881 2.881H16.088a2.88 2.88 0 0 1-2.88-2.881V9.484a2.88 2.88 0 0 1 2.88-2.88z"/><path fill="#6175E1" d="M15.968 7.924h36.743a1.44 1.44 0 0 1 1.439 1.44v49.95a1.44 1.44 0 0 1-1.439 1.44H15.968c-.795 0-1.44-.646-1.44-1.44V9.365a1.44 1.44 0 0 1 1.44-1.441z"/><path fill="#3E50B4" d="M35.66 34.339c2.919 0 5.283-2.364 5.283-5.283s-2.364-5.283-5.283-5.283c-2.918 0-5.283 2.364-5.283 5.283s2.365 5.283 5.283 5.283zm0 2.641c-3.526 0-10.566 1.771-10.566 5.283v2.643h21.132v-2.643c.001-3.512-7.038-5.283-10.566-5.283z"/><circle opacity=".9" fill="#FFF" cx="35.66" cy="29.057" r="3.962"/><path opacity=".9" fill="#FFF" d="M26.415 42.264v1.321h18.491v-1.321c0-1.98-5.283-3.962-9.246-3.962-3.962 0-9.245 1.981-9.245 3.962z"/><path fill="#3E50B4" d="M13.868 18.491h2.642a1.981 1.981 0 0 1 0 3.962h-2.642a1.981 1.981 0 0 1 0-3.962zm0 9.245h2.642a1.981 1.981 0 0 1 0 3.962h-2.642a1.981 1.981 0 0 1 0-3.962z"/><path opacity=".9" fill="#FFF" d="M13.868 19.811h2.642a.66.66 0 0 1 .66.66v.001a.66.66 0 0 1-.66.66h-2.642a.66.66 0 0 1-.66-.66v-.001a.66.66 0 0 1 .66-.66zm0 9.246h2.642a.66.66 0 0 1 .66.66v.001a.66.66 0 0 1-.66.66h-2.642a.66.66 0 0 1-.66-.66v-.001a.66.66 0 0 1 .66-.66z"/><path fill="#3E50B4" d="M13.868 36.98h2.642a1.98 1.98 0 1 1 0 3.962h-2.642a1.981 1.981 0 0 1 0-3.962z"/><path opacity=".9" fill="#FFF" d="M13.868 38.303h2.642a.66.66 0 0 1 .66.659v.001a.66.66 0 0 1-.66.66h-2.642a.66.66 0 0 1-.66-.66v-.001a.66.66 0 0 1 .66-.659z"/><path fill="#3E50B4" d="M13.868 46.227h2.642a1.98 1.98 0 1 1 0 3.96h-2.642a1.98 1.98 0 1 1 0-3.96z"/><path opacity=".9" fill="#FFF" d="M13.868 47.547h2.642a.66.66 0 0 1 .66.66v.001a.66.66 0 0 1-.66.66h-2.642a.66.66 0 0 1-.66-.66v-.001a.66.66 0 0 1 .66-.66z"/><path fill="#FF3E3E" d="M21.132 7.925h5.283v9.245l-2.641-1.321-2.642 1.321z"/></svg>